<svg rpl="" fill="white" height="20" icon-name="style" viewBox="0 0 20 20" width="20" xmlns="http://www.w3.org/2000/svg">
      <path d="M14.362 2.916L18 6.602l-1.895 1.864-2.185-1.709-.01 8.357a1 1 0 01-1 .999H7.091a1 1 0 01-1-1l.002-8.308-2.204 1.652L2 6.602l3.639-3.686h1.264A3.173 3.173 0 0010 5.406a3.174 3.174 0 003.097-2.49h1.265zm0-1.8h-1.265a1.8 1.8 0 00-1.758 1.412A1.38 1.38 0 0110 3.606a1.382 1.382 0 01-1.34-1.078 1.8 1.8 0 00-1.758-1.412H5.638c-.481 0-.943.193-1.281.535L.719 5.337a1.798 1.798 0 00.02 2.549l1.889 1.855a1.8 1.8 0 001.665.47v4.9c-.002.748.29 1.451.818 1.98.529.529 1.232.82 1.98.82h5.819a2.804 2.804 0 002.8-2.796l.005-4.893a1.798 1.798 0 001.652-.475l1.895-1.864a1.8 1.8 0 00.019-2.548l-3.638-3.686a1.8 1.8 0 00-1.281-.536v.003z"></path>
    </svg>
