<svg rpl="" fill="white" height="20" icon-name="trophy" viewBox="0 0 20 20" width="20" xmlns="http://www.w3.org/2000/svg">
      <path d="M16.7 4H15V2.9a.9.9 0 00-.9-.9H5.9a.9.9 0 00-.9.9V4H3.301A2.304 2.304 0 001 6.3v.8c0 2.529 1.933 4.592 4.396 4.849a5.01 5.01 0 003.704 2.96V17.2H6.501a.9.9 0 000 1.8h7a.9.9 0 000-1.8h-2.599v-2.291a5.01 5.01 0 003.703-2.96c2.463-.257 4.396-2.32 4.396-4.849v-.8c0-1.268-1.033-2.3-2.301-2.3zM2.801 7.1v-.8a.5.5 0 01.5-.5H5V10c0 .018.005.035.005.053A3.093 3.093 0 012.801 7.1zM10 13.2A3.204 3.204 0 016.8 10V3.8h6.399V10c0 1.765-1.434 3.2-3.199 3.2zm7.199-6.1a3.095 3.095 0 01-2.204 2.953c0-.018.005-.035.005-.053V5.8h1.7a.5.5 0 01.499.5v.8z"></path>
    </svg>
