<svg rpl="" fill="white" height="20" icon-name="qr-code" viewBox="0 0 20 20" width="20" xmlns="http://www.w3.org/2000/svg">
      <path d="M15.7 19H14c-.5 0-.9-.4-.9-.9s.4-.9.9-.9h1.7c.83 0 1.5-.67 1.5-1.5V14c0-.5.4-.9.9-.9s.9.4.9.9v1.7c0 1.82-1.48 3.3-3.3 3.3zM19 6V4.3C19 2.48 17.52 1 15.7 1H14c-.5 0-.9.4-.9.9s.4.9.9.9h1.7c.83 0 1.5.67 1.5 1.5V6c0 .5.4.9.9.9s.9-.4.9-.9zM2.8 6V4.3c0-.83.67-1.5 1.5-1.5H6c.5 0 .9-.4.9-.9S6.5 1 6 1H4.3C2.48 1 1 2.48 1 4.3V6c0 .5.4.9.9.9s.9-.4.9-.9zm4.1 12.1c0-.5-.4-.9-.9-.9H4.3c-.83 0-1.5-.67-1.5-1.5V14c0-.5-.4-.9-.9-.9s-.9.4-.9.9v1.7C1 17.52 2.48 19 4.3 19H6c.5 0 .9-.4.9-.9zm8.4-10V5.7c0-.55-.45-1-1-1h-2.4c-.55 0-1 .45-1 1v2.4c0 .55.45 1 1 1h2.4c.55 0 1-.45 1-1zm-6.2 0V5.7c0-.55-.45-1-1-1H5.7c-.55 0-1 .45-1 1v2.4c0 .55.45 1 1 1h2.4c.55 0 1-.45 1-1zm0 6.2v-2.4c0-.55-.45-1-1-1H5.7c-.55 0-1 .45-1 1v2.4c0 .55.45 1 1 1h2.4c.55 0 1-.45 1-1zm6.2-.1v-3.3h-1.8v2.6h-2.6v1.8h3.3c.61 0 1.1-.49 1.1-1.1z"></path>
    </svg>
