<svg rpl="" fill="white" height="20" icon-name="logout" viewBox="0 0 20 20" width="20" xmlns="http://www.w3.org/2000/svg">
      <path d="M13.701 1H6.298a3.299 3.299 0 00-3.299 3.299v8.402A3.299 3.299 0 006.298 16h.701v.858a2.26 2.26 0 002.255 2.259c.293 0 .594-.058.889-.184l5.487-2.347a2.257 2.257 0 001.369-2.075V4.299A3.298 3.298 0 0013.701 1zM7 6.767V14.2h-.701A1.5 1.5 0 014.8 12.701V4.299A1.5 1.5 0 016.299 2.8h6.494L8.37 4.692A2.257 2.257 0 007 6.767zm8.2 7.744a.457.457 0 01-.277.42l-5.487 2.347a.461.461 0 01-.181.039.46.46 0 01-.455-.459V6.767c0-.183.109-.348.277-.42L14.564 4a.461.461 0 01.181-.039.46.46 0 01.455.459v10.091zM10.3 9.7h1.8v2.585h-1.8V9.7z"></path>
    </svg>
