<svg rpl="" fill="white" height="20" icon-name="earn" viewBox="0 0 20 20" width="20" xmlns="http://www.w3.org/2000/svg">
      <path d="M10 1c-4.96 0-9 4.04-9 9s4.04 9 9 9 9-4.04 9-9-4.04-9-9-9zm0 16.2c-3.97 0-7.2-3.23-7.2-7.2S6.03 2.8 10 2.8s7.2 3.23 7.2 7.2-3.23 7.2-7.2 7.2zm3.9-5.26a2.3 2.3 0 01-2.3 2.3h-.8v1.84H9.2v-1.84h-.15c-1.45 0-2.52-.81-2.92-2.23l1.54-.44c.27.96.92 1.07 1.38 1.07h2.55c.39 0 .7-.31.7-.7 0-.33-.22-.61-.55-.68l-3.86-.88A2.29 2.29 0 016.1 8.14a2.3 2.3 0 012.3-2.3h.8V4h1.6v1.84h.15c1.45 0 2.52.81 2.92 2.23l-1.54.44c-.27-.96-.92-1.07-1.38-1.07H8.4c-.39 0-.7.31-.7.7 0 .33.22.61.54.68l3.87.88a2.29 2.29 0 011.79 2.24z"></path>
    </svg>
