<svg rpl="" class="rpl-rtl-icon" fill="white" height="20" icon-name="text-post" id="drafts-list-leading-icon" viewBox="0 0 20 20" width="20" xmlns="http://www.w3.org/2000/svg">
      <path d="M14.7 2H5.3C3.48 2 2 3.48 2 5.3v9.4C2 16.52 3.48 18 5.3 18h9.4c1.82 0 3.3-1.48 3.3-3.3V5.3C18 3.48 16.52 2 14.7 2zm1.5 12.7c0 .83-.67 1.5-1.5 1.5H5.3c-.83 0-1.5-.67-1.5-1.5V5.3c0-.83.67-1.5 1.5-1.5h9.4c.83 0 1.5.67 1.5 1.5v9.4z"></path><path d="M12 11.1H6v1.8h6v-1.8zM14 7.1H6v1.8h8V7.1z"></path>
    </svg>
